<svg width="25" height="23" viewBox="0 0 25 23" fill="none" xmlns="http://www.w3.org/2000/svg">
<path fill-rule="evenodd" clip-rule="evenodd" d="M12.3286 0C18.9005 0 24.2282 5.32744 24.2282 11.8993C24.2282 15.0151 23.0297 17.8509 21.0695 19.9723C17.0739 19.4314 11.6832 20.4683 7.37113 22.7191C6.67644 22.4 6.01781 22.0161 5.40287 21.575C7.92123 19.976 10.8316 18.4794 13.7868 17.4032C13.9395 17.3876 14.1964 17.5176 14.4644 17.491C16.7782 16.8829 15.0085 13.7244 13.3214 15.5143C13.1027 15.9875 13.1202 16.1917 12.9361 16.3343C11.0852 17.0924 8.18399 18.448 5.49692 19.9778L6.6579 19.0679C6.94074 18.8526 7.12929 18.6836 7.41471 18.4667C7.56761 18.3502 7.65439 18.271 7.79002 18.1633L15.6713 11.9607C15.8707 11.8399 16.0549 11.9295 16.5752 11.8953C16.9673 11.8695 17.5126 11.2474 17.4865 10.8547C17.4494 10.2839 17.4106 9.84168 16.7497 9.53109C16.1471 9.24789 15.4188 9.56451 15.1401 10.119C15.0192 10.3595 15.0487 10.6459 14.9792 10.7828L4.84909 18.781C4.8761 18.7514 4.90406 18.7207 4.93531 18.6878L11.8451 11.4185C12.0252 11.2704 12.2201 11.3325 12.7302 11.224C13.1147 11.1424 13.565 10.4485 13.483 10.0637C13.3639 9.50409 13.2623 9.07218 12.5638 8.85936C11.9268 8.66565 11.2515 9.08373 11.0552 9.67202C10.97 9.92747 11.0403 10.2069 10.9913 10.3522L5.21083 16.4525C6.36241 14.5432 7.35643 12.691 7.99599 11.3779C8.15018 11.2035 8.35276 11.234 8.83923 11.0464C9.20588 10.9047 9.54106 10.1484 9.39955 9.78135C9.19353 9.24747 9.025 8.83714 8.30145 8.73753C7.64223 8.64656 7.04147 9.16609 6.94039 9.77827C6.89665 10.0438 7.00983 10.3085 6.98447 10.4599C5.74303 13.287 4.10017 16.0443 2.37722 18.4245C1.14588 16.5508 0.429565 14.3087 0.429565 11.8993C0.429565 5.32744 5.75716 0 12.3286 0V0ZM11.8714 9.45772C11.0304 9.9997 11.7782 11.1913 12.6337 10.6966C13.4246 10.2394 12.7021 8.92237 11.8714 9.45772ZM14.8538 16.7425C14.1395 17.4427 13.143 16.4499 13.8145 15.725C14.4355 15.0548 15.5598 16.0509 14.8538 16.7425ZM7.71228 9.43769C6.96759 10.1056 7.89417 11.164 8.66091 10.5404C9.36957 9.96423 8.44814 8.77773 7.71228 9.43769ZM15.9786 10.024C15.0687 10.4395 15.6379 11.7262 16.5555 11.3591C17.4036 11.0203 16.8775 9.61325 15.9786 10.024Z" fill="#F26722"/>
</svg>
